<svg width="36" height="36" viewBox="0 0 36 36" fill="none" xmlns="http://www.w3.org/2000/svg">
<path d="M34.5 17.0833C34.5063 19.5031 33.941 21.8901 32.85 24.05C31.5565 26.6382 29.5679 28.8151 27.107 30.337C24.6461 31.8589 21.8101 32.6655 18.9167 32.6667C16.4969 32.673 14.1099 32.1076 11.95 31.0167L1.5 34.5L4.98333 24.05C3.89237 21.8901 3.32702 19.5031 3.33333 17.0833C3.33445 14.1899 4.14112 11.3539 5.66299 8.893C7.18485 6.43211 9.3618 4.44353 11.95 3.14999C14.1099 2.05903 16.4969 1.49368 18.9167 1.49999H19.8333C23.6546 1.71081 27.2639 3.32372 29.9701 6.0299C32.6763 8.73608 34.2892 12.3454 34.5 16.1667V17.0833Z" fill="#157D7E" stroke="#1E1E1E" stroke-opacity="0.55" stroke-width="3" stroke-linecap="round" stroke-linejoin="round"/>
</svg>
