<svg width="24" height="24" viewBox="0 0 24 24" fill="none" xmlns="http://www.w3.org/2000/svg">
<path d="M11.8111 0.226562C0.916877 0.226562 0.0644531 1.07958 0.0644531 11.9732V12.1862C0.0644531 23.0798 0.916878 23.9328 11.8111 23.9328H12.0241C22.9183 23.9328 23.7707 23.0798 23.7707 12.1862V12.0797C23.7707 1.0871 22.9101 0.226562 11.9176 0.226562H11.8111ZM19.026 3.7825C19.6808 3.78072 20.213 4.30945 20.2147 4.96434C20.2165 5.61922 19.6878 6.15134 19.0329 6.15312C18.378 6.1549 17.8459 5.62617 17.8441 4.97128C17.8423 4.3164 18.3711 3.78427 19.026 3.7825ZM11.9037 6.15312C15.1763 6.14542 17.8364 8.79314 17.8441 12.0658C17.8518 15.3384 15.2041 17.9985 11.9315 18.0062C8.65881 18.0139 5.99871 15.3662 5.99101 12.0936C5.98331 8.82092 8.63103 6.16082 11.9037 6.15312ZM11.9095 8.52374C9.9454 8.52848 8.35689 10.1249 8.36163 12.0889C8.36637 14.0524 9.9622 15.6404 11.9257 15.6356C13.8897 15.6309 15.4782 14.035 15.4735 12.0716C15.4688 10.1075 13.8729 8.519 11.9095 8.52374Z" fill="url(#paint0_linear_42_962)"/>
<defs>
<linearGradient id="paint0_linear_42_962" x1="21" y1="2.5" x2="3.5" y2="22.5" gradientUnits="userSpaceOnUse">
<stop stop-color="#BA3D8E"/>
<stop offset="0.495192" stop-color="#E55263"/>
<stop offset="1" stop-color="#FD903A"/>
</linearGradient>
</defs>
</svg>
