<svg width="24" height="25" viewBox="0 0 24 25" fill="none" xmlns="http://www.w3.org/2000/svg">
<path d="M4.24498 0.9375C2.06288 0.9375 0.293945 2.70644 0.293945 4.88854V20.6927C0.293945 22.8748 2.06288 24.6437 4.24498 24.6437H20.0491C22.2312 24.6437 24.0002 22.8748 24.0002 20.6927V4.88854C24.0002 2.70644 22.2312 0.9375 20.0491 0.9375H4.24498ZM5.42236 6.01741H9.90255L13.0841 10.5384L16.9447 6.01741H18.3558L13.7213 11.4435L19.4362 19.5638H14.9571L11.2651 14.3186L6.78494 19.5638H5.37385L10.6279 13.4135L5.42236 6.01741ZM7.58308 7.14627L15.5458 18.435H17.2755L9.31276 7.14627H7.58308Z" fill="black"/>
</svg>
