<svg width="74" height="72" viewBox="0 0 74 72" fill="none" xmlns="http://www.w3.org/2000/svg">
<path fill-rule="evenodd" clip-rule="evenodd" d="M11.9041 31.2983L21.4495 46.3097L10.342 53.5689L0.796631 38.5576L11.9041 31.2983Z" fill="#79CECB"/>
<path fill-rule="evenodd" clip-rule="evenodd" d="M29.9234 24.8619L19.9576 33.3032C18.6594 34.4059 18.4574 36.3731 19.5332 37.7014C20.6089 39.0254 22.6037 39.2761 23.869 38.1316L32.6232 30.2207L35.6195 29.9242C31.2961 39.0046 30.1544 41.0803 28.0524 50.8082L16.8708 53.5356C15.6219 53.8406 14.9831 54.4252 14.7317 55.1937C14.4638 56.0123 19.9001 67.3482 20.6461 69.0272C21.8825 69.0689 24.4544 64.7459 22.1175 60.1848L32.3925 56.6137C34.5851 55.8536 36.1019 54.1244 36.5924 51.8271L37.1405 49.2417L43.6978 55.5987L39.9431 66.826C39.535 68.0581 39.7122 68.9227 40.2275 69.5408C40.7798 70.1965 53.1567 71.3995 54.9618 71.6251C55.6419 70.5809 53.3379 66.0992 48.2808 65.7484L50.6219 55.0015C51.1247 52.7086 50.4529 50.4948 48.7755 48.8742L43.7967 44.0793L48.2273 32.4762L50.5023 35.6882C51.3183 36.841 52.6619 37.3547 54.0304 37.0373L63.6293 34.7942C65.2821 34.4101 66.4196 32.8562 66.1187 31.1688C65.8178 29.4773 64.1857 28.2535 62.5372 28.646L53.4863 30.7971C51.9284 29.0679 50.7249 27.5851 49.7564 26.3321L38.7725 21.9465C36.6415 22.6482 33.8141 23.6381 29.9234 24.8619Z" fill="#42A6A3"/>
<path fill-rule="evenodd" clip-rule="evenodd" d="M43.3349 18.9519L49.3481 21.2867L47.786 25.4175C47.1555 27.0925 45.2801 27.9403 43.6274 27.2971C41.9746 26.658 41.138 24.7618 41.7728 23.0827L43.3349 18.9519Z" fill="#BDF3EC"/>
<path fill-rule="evenodd" clip-rule="evenodd" d="M44.5794 23.0993C48.9028 24.7785 54.0259 21.8589 56.0207 16.5836C56.7173 14.7417 56.9398 12.858 56.7543 11.1162L45.0288 5.66553C44.2374 11.4253 42.4281 15.1886 39.9387 17.6195C40.627 20.1463 42.2508 22.1972 44.5794 23.0993Z" fill="#BDF3EC"/>
<path fill-rule="evenodd" clip-rule="evenodd" d="M39.9388 17.6194C42.4282 15.1928 44.2376 11.4253 45.0289 5.66552L56.7546 11.1162C60.2001 12.1019 61.5479 10.8865 64.0167 7.49075C55.1554 7.56591 49.9211 -4.10404 44.0809 2.29484C40.8332 -2.11169 34.9105 10.6066 39.9388 17.6194Z" fill="#42A6A3"/>
<path fill-rule="evenodd" clip-rule="evenodd" d="M70.3019 47.241C72.0122 46.435 73.2033 44.6807 73.2033 42.6425C73.2033 40.5792 71.9875 38.8081 70.2483 38.0187V25.1542C71.9875 24.3648 73.2033 22.5939 73.2033 20.5306C73.2033 18.4923 72.0122 16.7381 70.3019 15.9319V21.2406H66.1102V15.9319C64.3956 16.7379 63.2087 18.4922 63.2087 20.5306C63.2087 22.5939 64.4204 24.3648 66.1638 25.1542V38.0187C64.4204 38.8081 63.2087 40.5792 63.2087 42.6425C63.2087 44.6807 64.3958 46.435 66.1102 47.241V41.9323H70.3019V47.241Z" fill="#79CECB"/>
<path fill-rule="evenodd" clip-rule="evenodd" d="M19.9574 33.3031C18.8322 34.2596 18.5315 35.8636 19.1702 37.1373C19.2609 37.3211 19.3722 37.4966 19.504 37.6636C19.5123 37.676 19.5246 37.6886 19.5328 37.7012C20.6085 39.0253 22.6033 39.2759 23.8687 38.1315L25.9088 36.2896L22.0842 31.5029L19.9574 33.3031Z" fill="#BDF3EC"/>
<path fill-rule="evenodd" clip-rule="evenodd" d="M60.4143 29.1516L61.7909 35.2247L63.629 34.7944C65.0592 34.4603 66.102 33.2532 66.1637 31.8373V31.5867C66.1554 31.4488 66.1431 31.3069 66.1184 31.169C65.8174 29.4775 64.1854 28.2536 62.5368 28.6462L60.4143 29.1516Z" fill="#BDF3EC"/>
<path fill-rule="evenodd" clip-rule="evenodd" d="M43.7965 44.0794L30.3932 41.8281C29.5895 44.2215 28.8972 46.8946 28.0522 50.8082L16.8705 53.5356C15.6217 53.8406 14.9829 54.4252 14.7315 55.1937C14.4636 56.0123 19.8999 67.3482 20.6458 69.0271C21.8822 69.0689 24.4541 64.7459 22.1173 60.1848L32.3922 56.6137C34.5849 55.8536 36.1016 54.1244 36.5921 51.8271L37.1402 49.2417L43.6975 55.5987L39.9428 66.826C39.5347 68.0581 39.712 68.9227 40.2272 69.5408C40.7796 70.1965 53.1565 71.3995 54.9616 71.6251C55.6416 70.5809 53.3376 66.0992 48.2806 65.7484L50.6217 55.0015C51.1245 52.7085 50.4527 50.4948 48.7753 48.8742L43.7965 44.0794Z" fill="#79CECB"/>
<path fill-rule="evenodd" clip-rule="evenodd" d="M11.9041 31.2983L21.4495 46.3097L19.1372 47.8217C17.8637 48.6529 16.1491 48.2812 15.3289 46.9905L8.76741 36.6696C7.94718 35.379 8.31819 33.6414 9.58763 32.8103L11.9041 31.2983Z" fill="#42A6A3"/>
<path fill-rule="evenodd" clip-rule="evenodd" d="M12.6089 39.2678L14.5832 42.3712L11.4878 44.3928L9.51367 41.2894L12.6089 39.2678Z" fill="#79CECB"/>
<path d="M71.0626 37.3672V25.9664C72.8665 24.8986 74 22.9412 74 20.8111C74 18.4911 72.6382 16.3579 70.5307 15.3766C70.2172 15.2309 69.8512 15.2551 69.5599 15.441C69.2685 15.6272 69.0921 15.9492 69.0921 16.2953V20.4952H66.9494V16.2953C66.9494 15.9493 66.7732 15.6275 66.4821 15.4413C66.191 15.2553 65.8252 15.2308 65.5117 15.3762C63.4012 16.3566 62.0375 18.4899 62.0375 20.8111C62.0375 22.9423 63.1727 24.8997 64.9789 25.9669V28.2471C64.1115 27.7295 63.1153 27.5685 62.1546 27.7945L53.7386 29.7704C52.5946 28.4968 51.5243 27.2208 50.4781 25.8837C50.3673 25.7421 50.2208 25.6325 50.0537 25.5664L48.9861 25.1436L49.2178 24.5394C50.0189 24.3333 50.8136 24.0133 51.5861 23.5786C53.9395 22.2542 55.81 20.0237 56.8536 17.2977C57.4081 15.8488 57.6974 14.3264 57.71 12.8278C60.9508 13.271 62.5632 11.471 64.6709 8.60696C64.8983 8.298 64.9317 7.88696 64.7575 7.54538C64.5845 7.20611 64.2363 6.99284 63.8563 6.99284C63.8535 6.99284 63.8507 6.99284 63.8478 6.99298C60.3298 7.01748 57.4302 5.04032 54.6257 3.12346C51.1942 0.778031 47.6534 -1.64236 44.0405 1.4918C43.0432 0.786441 41.834 0.830081 40.7016 1.66621C39.0557 2.8809 37.6706 5.71899 37.1724 8.89679C36.8408 11.0127 36.647 15.0342 39.0019 18.401C39.403 19.7621 40.0519 20.9686 40.9005 21.9561L39.1347 21.2591C38.9159 21.1727 38.6742 21.1655 38.4507 21.2381C37.8167 21.4446 37.1206 21.676 36.3529 21.9314C34.5785 22.5219 32.37 23.2569 29.6638 24.0969C29.5359 24.1367 29.4172 24.2013 29.3144 24.2874L19.4115 32.5776C18.9738 32.945 18.6319 33.3862 18.3881 33.8679L18.0525 33.3467C17.5143 32.511 16.3927 32.267 15.5473 32.8062L14.5776 33.4324L12.9069 30.8366C12.7615 30.6108 12.5324 30.4519 12.2702 30.3951C12.0078 30.3387 11.7336 30.3883 11.5082 30.5338L9.22444 32.0078C9.21793 32.0117 9.21126 32.0149 9.20489 32.0191C9.19302 32.0268 9.18187 32.0352 9.16999 32.0429L0.463614 37.6624C0.237994 37.8079 0.0794222 38.0373 0.0227998 38.2999C-0.0338225 38.5624 0.0159936 38.8369 0.161387 39.0628L9.65353 53.804C9.79892 54.0298 10.028 54.1887 10.2904 54.2454C10.3612 54.2606 10.4328 54.2683 10.504 54.2683C10.6971 54.2683 10.8876 54.2129 11.0524 54.1065L19.7744 48.4751C19.7811 48.4709 19.7879 48.4674 19.7944 48.4632C19.7994 48.46 19.8037 48.4562 19.8086 48.453L22.0932 46.978C22.5628 46.6748 22.6981 46.048 22.3954 45.5778L20.6918 42.9311L21.665 42.3049C22.4964 41.7654 22.7413 40.6554 22.2189 39.8194C23.1163 39.7825 23.9564 39.4477 24.6231 38.8518L26.6139 37.0744C26.614 37.0743 26.6142 37.0743 26.6143 37.0741C26.6203 37.0694 26.6253 37.064 26.6311 37.0591L33.0781 31.3034L33.9342 31.2198C30.3217 38.7 29.1551 41.1529 27.2558 49.7075L16.7562 52.2376C15.249 52.6012 14.2902 53.3731 13.9066 54.532C13.6812 55.212 13.804 56.0765 18.9652 67.018C19.3674 67.8707 19.6851 68.5443 19.8233 68.8515C19.9817 69.2038 20.3265 69.4351 20.7121 69.4481C21.5072 69.4751 22.3133 68.8993 22.988 67.8283C24.0175 66.1941 24.7033 63.3538 23.5812 60.3522L32.7492 57.2042C35.2607 56.344 37.0234 54.3593 37.5856 51.7578L37.7501 50.9915L42.4939 55.5349L38.9677 65.9518C38.3559 67.7773 38.885 68.9399 39.4401 69.598C39.8932 70.1295 40.7383 70.493 52.8263 71.7835C53.7109 71.8779 54.4098 71.9526 54.732 71.9923C54.7736 71.9974 54.8149 72 54.856 72C55.1931 72 55.5117 71.8311 55.7004 71.5449C56.1369 70.8827 56.0685 69.8938 55.5081 68.7599C54.6509 67.0258 52.5863 64.9576 49.4411 64.3543L51.53 54.8803C52.1012 52.286 51.3266 49.746 49.4036 47.9108L44.9458 43.6695L48.4303 34.6543L49.6008 36.287C50.6509 37.7525 52.3962 38.4121 54.1571 38.0084L61.8576 36.2309C61.862 36.23 61.8663 36.2298 61.8705 36.2287C61.8756 36.2276 61.8802 36.2258 61.8851 36.2245L63.6975 35.8062C64.1626 35.6994 64.5927 35.5218 64.9788 35.2888V37.367C63.1725 38.4377 62.0373 40.3965 62.0373 42.5257C62.0373 44.8468 63.4011 46.9803 65.5116 47.9608C65.6471 48.0237 65.7925 48.0549 65.9375 48.0549C66.1275 48.0549 66.3169 48.0013 66.4821 47.8957C66.7733 47.7096 66.9494 47.3877 66.9494 47.0418V42.8418H69.0921V47.0418C69.0921 47.3878 69.2685 47.7099 69.5599 47.896C69.8512 48.082 70.2173 48.1061 70.5307 47.9604C72.6382 46.9788 74 44.8458 74 42.5257C74 40.3971 72.8664 38.4383 71.0626 37.3672ZM42.6906 23.6811L42.7394 23.5541C43.1906 23.8419 43.6692 24.0866 44.1741 24.2799C45.0681 24.6229 46.0005 24.7988 46.9449 24.8137L46.7787 25.2472C46.5702 25.7906 46.1599 26.2221 45.6235 26.4618C45.0876 26.7013 44.494 26.7186 43.9503 26.5095C43.4089 26.3027 42.9789 25.8932 42.7395 25.3561C42.4999 24.8182 42.4825 24.2232 42.6906 23.6811ZM54.9637 16.5726C54.0889 18.8582 52.5372 20.7191 50.5945 21.8124C48.7133 22.8709 46.6904 23.0754 44.8974 22.3875C43.1366 21.7137 41.7667 20.2138 41.0718 18.2301C43.4196 15.7505 44.966 12.2881 45.7745 7.69196L55.6754 12.2388C55.7459 13.6762 55.5033 15.1631 54.9637 16.5726ZM39.1719 9.21083C39.6467 6.18193 40.9202 4.02208 41.9025 3.29701C42.1459 3.11723 42.3466 3.02545 42.5309 3.02545C42.7727 3.02545 42.986 3.18392 43.2299 3.51028C43.4099 3.75125 43.6873 3.89957 43.9874 3.91523C44.2889 3.929 44.5791 3.81229 44.783 3.59133C47.3488 0.814133 49.5312 2.09494 53.4846 4.79674C55.9318 6.46944 58.6523 8.32888 61.9138 8.86634C60.2775 10.8379 59.2233 11.2292 56.9868 10.6117L45.4041 5.29245C45.1133 5.15891 44.7766 5.17095 44.496 5.32478C44.2155 5.47861 44.024 5.75626 43.98 6.07348C43.3566 10.5563 42.0787 13.916 40.0864 16.2939C38.7505 13.7141 38.9193 10.8226 39.1719 9.21083ZM11.7543 32.7858L13.3907 35.3281C13.4012 35.3468 13.411 35.3655 13.4228 35.3838C13.4343 35.4017 13.4472 35.4181 13.4597 35.4351L18.4303 43.1576C18.4339 43.1635 18.4368 43.1698 18.4406 43.1756C18.4436 43.1804 18.4474 43.1844 18.4506 43.1892L20.1463 45.8239L18.6857 46.7669C17.8855 47.2733 16.8236 47.0419 16.3117 46.2459L14.5788 43.5547L15.2678 43.1102C15.4935 42.9645 15.652 42.7351 15.7088 42.4727C15.7654 42.21 15.7156 41.9357 15.5702 41.7096L13.6078 38.662C13.305 38.192 12.6788 38.0561 12.2092 38.3594L11.5228 38.8024L9.7898 36.1114C9.27788 35.3156 9.50234 34.253 10.2878 33.7324L11.7543 32.7858ZM12.6309 42.3998C12.6247 42.4038 12.6192 42.4085 12.6131 42.4125L11.9451 42.8434L11.0794 41.4991L11.7558 41.0626C11.7601 41.0598 11.7648 41.0581 11.7691 41.0553C11.7753 41.0512 11.7808 41.0466 11.7869 41.0425L12.4548 40.6115L13.3205 41.9561L12.6497 42.3889C12.6437 42.3926 12.6371 42.3957 12.6309 42.3998ZM10.8061 51.8544L2.41064 38.8163L7.50883 35.5258C7.56255 36.1075 7.75154 36.6849 8.08852 37.2088L9.82151 39.9002L9.13234 40.3449C8.90672 40.4904 8.74815 40.7198 8.69138 40.9824C8.63476 41.2449 8.68458 41.5194 8.82997 41.7453L10.7923 44.7927C10.9858 45.0933 11.3114 45.257 11.6437 45.257C11.8314 45.257 12.0214 45.2048 12.191 45.0955L12.8774 44.6525L14.6102 47.3436C14.9469 47.867 15.3937 48.2767 15.9001 48.5656L10.8061 51.8544ZM15.6743 35.1354L16.4672 34.6235L18.4086 37.6387C18.5141 37.8392 18.639 38.0326 18.7812 38.2175L20.3903 40.7166L19.5957 41.228L15.6743 35.1354ZM21.8909 37.7914C21.3237 37.7477 20.7923 37.4736 20.4312 37.0405L20.172 36.638C19.764 35.8049 19.9637 34.7581 20.7108 34.1311L22.0351 33.0224L24.583 36.1725L23.2758 37.3396C22.9049 37.6711 22.4131 37.8323 21.8909 37.7914ZM48.0083 49.3781C49.426 50.7313 49.975 52.5303 49.5538 54.4436L47.2269 64.9969C47.1633 65.285 47.2283 65.5864 47.4049 65.8226C47.5814 66.0586 47.8519 66.2059 48.1459 66.2261C50.9679 66.4195 52.5532 68.0494 53.1037 68.7415C53.4377 69.1612 53.6508 69.5424 53.7809 69.8474C53.557 69.8233 53.3097 69.7969 53.0409 69.7682C50.3449 69.4804 42.319 68.6234 40.8824 68.1488C40.7184 67.8844 40.6034 67.4404 40.8853 66.5986L44.6175 55.5734C44.7438 55.2007 44.6428 54.7883 44.3587 54.5162L37.8408 48.2736C37.5759 48.02 37.1947 47.9298 36.8441 48.0371C36.4938 48.145 36.229 48.4341 36.1519 48.7927L35.6073 51.3303C35.193 53.2474 33.9452 54.6523 32.0934 55.2866L21.8802 58.7936C21.6017 58.8892 21.3786 59.1017 21.2691 59.3754C21.1596 59.6491 21.1747 59.9571 21.3105 60.2186C22.617 62.7376 22.0504 64.9428 21.7461 65.774C21.5628 66.2748 21.3497 66.6532 21.1583 66.9222C21.0498 66.6916 20.9283 66.4343 20.7952 66.152C19.6469 63.7174 16.2268 56.467 15.8908 55.0112C16.0068 54.7805 16.3064 54.4295 17.2302 54.2068L28.3447 51.5285C28.7217 51.4376 29.0135 51.1392 29.0964 50.7602C29.8304 47.4045 30.446 44.9864 31.1257 42.8665L43.2858 44.8844L48.0083 49.3781ZM53.7041 36.0333C52.7392 36.2545 51.82 35.9076 51.2452 35.1054L48.9838 31.9512C48.7671 31.6491 48.4029 31.4894 48.0338 31.537C47.6652 31.584 47.352 31.8293 47.2179 32.1764L43.111 42.8021L31.7959 40.9244C32.7827 38.2593 33.9872 35.7649 35.8451 31.9179L36.5408 30.4761C36.6998 30.1463 36.6686 29.7563 36.4592 29.456C36.2498 29.1556 35.8949 28.9927 35.531 29.0275L32.5526 29.3187C32.339 29.3396 32.1377 29.4279 31.9775 29.571L26.0954 34.8225L23.5881 31.7226L30.4574 25.972C33.0948 25.151 35.2507 24.4336 36.9914 23.8544C37.6176 23.6459 38.1957 23.4535 38.7314 23.2779L40.5481 23.9949C40.4654 24.7324 40.5801 25.4831 40.8916 26.182C41.3516 27.214 42.1817 28.0025 43.2268 28.4017C43.7134 28.5887 44.221 28.6821 44.7283 28.6821C45.3126 28.6821 45.8968 28.5583 46.4484 28.3119C47.1209 28.0114 47.6894 27.5521 48.1156 26.9779L49.055 27.35C50.1995 28.8021 51.3747 30.1868 52.6418 31.5763C52.889 31.8473 53.2629 31.9637 53.6202 31.8796L59.517 30.4951L60.4315 34.4806L53.7041 36.0333ZM63.2439 33.8311L62.4034 34.0251L61.4873 30.0322L62.6172 29.7669C63.0891 29.6564 63.5877 29.7517 64.021 30.0361C64.5086 30.3565 64.8472 30.8675 64.9494 31.4359C65.1417 32.5152 64.3929 33.5672 63.2439 33.8311ZM71.1159 44.9847V41.8279C71.1159 41.2684 70.6628 40.8148 70.1039 40.8148H65.9375C65.3786 40.8148 64.9257 41.2684 64.9257 41.8279V44.9885C64.3777 44.2988 64.0611 43.4335 64.0611 42.5252C64.0611 40.9663 64.9813 39.5451 66.4054 38.9046C66.7689 38.741 67.0026 38.3793 67.0026 37.9804V25.3516C67.0026 24.9521 66.768 24.5897 66.4035 24.4266C64.9805 23.79 64.0611 22.3709 64.0611 20.8111C64.0611 19.9026 64.3775 19.0375 64.9257 18.3478V21.5085C64.9257 22.068 65.3788 22.5217 65.9375 22.5217H70.1039C70.6628 22.5217 71.1159 22.068 71.1159 21.5085V18.3516C71.6614 19.0407 71.9762 19.9045 71.9762 20.8111C71.9762 22.3706 71.0581 23.79 69.6372 24.4271C69.2731 24.5903 69.039 24.9523 69.039 25.3516V37.9804C69.039 38.379 69.2724 38.7405 69.6353 38.9042C71.0574 39.5454 71.9762 40.9666 71.9762 42.525C71.9762 43.4318 71.6614 44.2954 71.1159 44.9847ZM11.983 15.0485C11.983 14.489 12.4361 14.0354 12.9948 14.0354H32.9379C33.4968 14.0354 33.9497 14.489 33.9497 15.0485C33.9497 15.608 33.4966 16.0617 32.9379 16.0617H12.9948C12.436 16.0617 11.983 15.608 11.983 15.0485ZM30.988 18.9163C31.5468 18.9163 31.9998 19.37 31.9998 19.9295C31.9998 20.489 31.5467 20.9426 30.988 20.9426H16.6821C16.1232 20.9426 15.6703 20.489 15.6703 19.9295C15.6703 19.37 16.1234 18.9163 16.6821 18.9163H30.988ZM11.983 24.109C11.983 23.5495 12.4361 23.0958 12.9948 23.0958H25.0803C25.6391 23.0958 26.0923 23.5495 26.0923 24.109C26.0923 24.6685 25.6391 25.1221 25.0803 25.1221H12.9948C12.436 25.1221 11.983 24.6685 11.983 24.109Z" fill="#0D5F5A"/>
</svg>
